<?xml version="1.0" encoding="UTF-8"?>
<!DOCTYPE svg PUBLIC "-//W3C//DTD SVG 1.1//EN" "http://www.w3.org/Graphics/SVG/1.1/DTD/svg11.dtd">
<!-- Creator: CorelDRAW 2021.5 -->
<svg xmlns="http://www.w3.org/2000/svg" xml:space="preserve" width="56.345mm" height="23.0147mm" version="1.1" style="shape-rendering:geometricPrecision; text-rendering:geometricPrecision; image-rendering:optimizeQuality; fill-rule:evenodd; clip-rule:evenodd"
viewBox="0 0 2542.76 1038.62"
 xmlns:xlink="http://www.w3.org/1999/xlink"
 xmlns:xodm="http://www.corel.com/coreldraw/odm/2003">
 <defs>
  <style type="text/css">
   <![CDATA[
    .str1 {stroke:#189AB4;stroke-width:11.94;stroke-miterlimit:22.9256}
    .str0 {stroke:#CD3086;stroke-width:11.94;stroke-miterlimit:22.9256}
    .fil1 {fill:#189AB4;fill-rule:nonzero}
    .fil0 {fill:#CD3086;fill-rule:nonzero}
   ]]>
  </style>
 </defs>
 <g id="__x0023_Layer_x0020_1">
  <metadata id="CorelCorpID_0Corel-Layer"/>
  <g id="_2530260764240">
   <path class="fil0 str0" d="M59.89 725.32l165.64 0c0,1.12 0.07,2.24 0.21,3.36 0.14,1.12 0.21,2.24 0.21,3.37 0,7.28 -0.84,14.71 -2.52,22.28 -1.68,7.57 -4.07,15.28 -7.15,23.12l-104.26 0 -12.19 71.05 82.82 0c0,8.97 -0.77,17.66 -2.32,26.07 -1.54,8.41 -3.85,17.23 -6.94,26.49l-82.82 0 -22.28 126.54c-11.49,1.68 -21.86,2.52 -31.11,2.52 -10.09,0 -20.18,-0.84 -30.27,-2.52l52.97 -302.28zm273.27 307.33c-35.6,0 -61.87,-9.95 -78.83,-29.85 -16.95,-19.9 -25.43,-47.51 -25.43,-82.82 0,-15.14 1.33,-30.62 3.99,-46.46 2.66,-15.84 6.8,-31.18 12.4,-46.04 5.6,-14.86 12.61,-28.8 21.02,-41.83 8.41,-13.03 18.43,-24.38 30.06,-34.05 11.63,-9.67 24.81,-17.31 39.52,-22.91 14.72,-5.6 31.04,-8.41 48.98,-8.41 17.66,0 33.07,2.66 46.25,7.99 13.17,5.33 24.04,12.89 32.58,22.7 8.55,9.81 14.92,21.79 19.13,35.94 4.2,14.15 6.3,30.2 6.3,48.14 0,15.13 -1.33,30.62 -3.99,46.46 -2.66,15.84 -6.8,31.04 -12.4,45.62 -5.6,14.57 -12.69,28.31 -21.23,41.2 -8.55,12.89 -18.57,24.11 -30.06,33.63 -11.49,9.53 -24.6,17.03 -39.31,22.49 -14.72,5.47 -31.04,8.2 -48.98,8.2zm5.47 -51.29c10.93,0 20.67,-2.45 29.22,-7.36 8.55,-4.91 15.98,-11.35 22.28,-19.34 6.3,-7.99 11.7,-17.24 16.19,-27.75 4.48,-10.51 8.06,-21.3 10.72,-32.37 2.66,-11.07 4.63,-22.07 5.88,-33 1.26,-10.93 1.9,-20.88 1.9,-29.85 0,-39.23 -15.14,-58.86 -45.41,-58.86 -10.93,0 -20.67,2.45 -29.22,7.36 -8.55,4.91 -16.05,11.35 -22.49,19.34 -6.45,7.99 -11.91,17.23 -16.4,27.74 -4.48,10.51 -8.06,21.3 -10.72,32.38 -2.66,11.07 -4.63,22.07 -5.88,33 -1.26,10.93 -1.9,21.02 -1.9,30.27 0,38.96 15.28,58.44 45.83,58.44zm287.14 51.29c-35.6,0 -61.87,-9.95 -78.83,-29.85 -16.95,-19.9 -25.43,-47.51 -25.43,-82.82 0,-15.14 1.33,-30.62 3.99,-46.46 2.66,-15.84 6.8,-31.18 12.4,-46.04 5.6,-14.86 12.61,-28.8 21.02,-41.83 8.41,-13.03 18.43,-24.38 30.06,-34.05 11.63,-9.67 24.81,-17.31 39.52,-22.91 14.72,-5.6 31.04,-8.41 48.98,-8.41 17.66,0 33.07,2.66 46.25,7.99 13.17,5.33 24.04,12.89 32.58,22.7 8.55,9.81 14.92,21.79 19.13,35.94 4.2,14.15 6.3,30.2 6.3,48.14 0,15.13 -1.33,30.62 -3.99,46.46 -2.66,15.84 -6.8,31.04 -12.4,45.62 -5.6,14.57 -12.69,28.31 -21.23,41.2 -8.55,12.89 -18.57,24.11 -30.06,33.63 -11.49,9.53 -24.6,17.03 -39.31,22.49 -14.72,5.47 -31.04,8.2 -48.98,8.2zm5.47 -51.29c10.93,0 20.67,-2.45 29.22,-7.36 8.55,-4.91 15.98,-11.35 22.28,-19.34 6.3,-7.99 11.7,-17.24 16.19,-27.75 4.48,-10.51 8.06,-21.3 10.72,-32.37 2.66,-11.07 4.63,-22.07 5.88,-33 1.26,-10.93 1.9,-20.88 1.9,-29.85 0,-39.23 -15.14,-58.86 -45.41,-58.86 -10.93,0 -20.67,2.45 -29.22,7.36 -8.55,4.91 -16.05,11.35 -22.49,19.34 -6.45,7.99 -11.91,17.23 -16.4,27.74 -4.48,10.51 -8.06,21.3 -10.72,32.38 -2.66,11.07 -4.63,22.07 -5.88,33 -1.26,10.93 -1.9,21.02 -1.9,30.27 0,38.96 15.28,58.44 45.83,58.44zm227.02 -255.61c11.21,-1.4 22.7,-2.66 34.47,-3.78 11.77,-1.12 24.24,-1.68 37.42,-1.68 21.58,0 40.99,2.8 58.23,8.41 17.23,5.6 31.88,13.66 43.93,24.18 12.05,10.51 21.3,23.4 27.75,38.68 6.44,15.27 9.67,32.58 9.67,51.92 0,30.27 -4.77,57.18 -14.29,80.72 -9.53,23.54 -22.84,43.3 -39.94,59.28 -17.1,15.98 -37.49,28.17 -61.17,36.58 -23.68,8.41 -49.54,12.61 -77.57,12.61 -15.98,0 -29.15,-0.49 -39.52,-1.47 -10.37,-0.98 -21.02,-2.17 -31.95,-3.57l52.97 -301.86zm17.23 253.09c5.05,0.84 12.05,1.26 21.02,1.26 15.98,0 30.48,-3.22 43.51,-9.67 13.03,-6.44 24.32,-15.42 33.85,-26.91 9.53,-11.49 16.89,-25.23 22.07,-41.2 5.19,-15.98 7.78,-33.63 7.78,-52.97 0,-12.89 -1.75,-24.18 -5.25,-33.84 -3.51,-9.67 -8.27,-17.59 -14.3,-23.76 -6.02,-6.16 -13.24,-10.79 -21.65,-13.87 -8.41,-3.08 -17.37,-4.63 -26.91,-4.63 -5.88,0 -10.37,0.07 -13.45,0.21 -3.08,0.14 -6.58,0.49 -10.51,1.05l-36.16 204.32z"/>
   <path class="fil1 str1" d="M1093.27 965.8c10.65,3.93 21.51,7.29 32.58,10.09 11.07,2.8 21.79,4.21 32.16,4.21 8.69,0 16.75,-0.98 24.18,-2.94 7.43,-1.96 13.87,-4.91 19.34,-8.83 5.47,-3.92 9.74,-8.69 12.83,-14.29 3.08,-5.6 4.62,-12.19 4.62,-19.76 0,-5.6 -1.26,-10.51 -3.78,-14.71 -2.52,-4.21 -5.74,-7.99 -9.67,-11.35 -3.92,-3.37 -8.55,-6.52 -13.87,-9.46 -5.33,-2.94 -10.65,-6.09 -15.98,-9.46 -17.94,-10.65 -32.16,-21.65 -42.67,-33 -10.51,-11.35 -15.76,-24.73 -15.76,-40.15 0,-15.14 2.66,-28.66 7.99,-40.57 5.33,-11.91 12.89,-21.93 22.7,-30.06 9.81,-8.13 21.65,-14.36 35.53,-18.71 13.88,-4.35 29.5,-6.52 46.88,-6.52 15.42,0 28.73,1.12 39.94,3.36 11.21,2.24 22.98,5.75 35.31,10.51 -1.12,7.57 -3.08,15.56 -5.88,23.96 -2.8,8.41 -6.73,16.68 -11.77,24.81 -8.13,-3.93 -16.47,-7.15 -25.01,-9.67 -8.55,-2.52 -19.69,-3.78 -33.43,-3.78 -5.05,0 -10.44,0.42 -16.18,1.26 -5.75,0.84 -10.93,2.45 -15.56,4.84 -4.63,2.38 -8.48,5.67 -11.56,9.88 -3.08,4.2 -4.63,9.67 -4.63,16.4 0,9.53 3.43,17.38 10.3,23.54 6.86,6.16 15.62,12.33 26.27,18.5 9.53,5.33 18.36,10.65 26.49,15.98 8.13,5.33 15.28,11.07 21.44,17.24 6.17,6.16 11,13.1 14.5,20.81 3.51,7.71 5.26,16.61 5.26,26.7 0,14.29 -2.59,28.02 -7.78,41.2 -5.19,13.17 -13.17,24.67 -23.96,34.48 -10.79,9.81 -24.46,17.65 -40.99,23.54 -16.54,5.88 -36.16,8.83 -58.86,8.83 -26.35,0 -52.27,-4.91 -77.78,-14.72 1.12,-8.41 3.15,-16.89 6.1,-25.43 2.94,-8.55 6.52,-17.45 10.72,-26.7zm290.93 -46.24l-55.07 -194.23c12.05,-1.68 23.4,-2.52 34.05,-2.52 5.05,0 10.09,0.14 15.14,0.42 5.05,0.28 10.23,0.98 15.56,2.1l32.37 134.11 77.77 -134.11c5.61,-0.84 11.21,-1.4 16.82,-1.68 5.6,-0.28 11.21,-0.42 16.81,-0.42 4.77,0 9.88,0.14 15.35,0.42 5.47,0.28 10.86,0.84 16.18,1.68l-123.18 194.23 -18.92 108.05c-5.88,1.12 -11.42,1.82 -16.61,2.1 -5.19,0.28 -10.3,0.42 -15.34,0.42 -4.77,0 -9.6,-0.14 -14.5,-0.42 -4.91,-0.28 -10.02,-0.98 -15.34,-2.1l18.92 -108.05zm164.8 46.24c10.65,3.93 21.51,7.29 32.58,10.09 11.07,2.8 21.79,4.21 32.16,4.21 8.69,0 16.75,-0.98 24.18,-2.94 7.43,-1.96 13.87,-4.91 19.34,-8.83 5.47,-3.92 9.74,-8.69 12.83,-14.29 3.08,-5.6 4.62,-12.19 4.62,-19.76 0,-5.6 -1.26,-10.51 -3.78,-14.71 -2.52,-4.21 -5.74,-7.99 -9.67,-11.35 -3.92,-3.37 -8.55,-6.52 -13.87,-9.46 -5.33,-2.94 -10.65,-6.09 -15.98,-9.46 -17.94,-10.65 -32.16,-21.65 -42.67,-33 -10.51,-11.35 -15.76,-24.73 -15.76,-40.15 0,-15.14 2.66,-28.66 7.99,-40.57 5.33,-11.91 12.89,-21.93 22.7,-30.06 9.81,-8.13 21.65,-14.36 35.53,-18.71 13.88,-4.35 29.5,-6.52 46.88,-6.52 15.42,0 28.73,1.12 39.94,3.36 11.21,2.24 22.98,5.75 35.31,10.51 -1.12,7.57 -3.08,15.56 -5.88,23.96 -2.8,8.41 -6.73,16.68 -11.77,24.81 -8.13,-3.93 -16.47,-7.15 -25.01,-9.67 -8.55,-2.52 -19.69,-3.78 -33.43,-3.78 -5.05,0 -10.44,0.42 -16.18,1.26 -5.75,0.84 -10.93,2.45 -15.56,4.84 -4.63,2.38 -8.48,5.67 -11.56,9.88 -3.08,4.2 -4.63,9.67 -4.63,16.4 0,9.53 3.43,17.38 10.3,23.54 6.86,6.16 15.62,12.33 26.27,18.5 9.53,5.33 18.36,10.65 26.49,15.98 8.13,5.33 15.28,11.07 21.44,17.24 6.17,6.16 11,13.1 14.5,20.81 3.51,7.71 5.26,16.61 5.26,26.7 0,14.29 -2.59,28.02 -7.78,41.2 -5.19,13.17 -13.17,24.67 -23.96,34.48 -10.79,9.81 -24.46,17.65 -40.99,23.54 -16.54,5.88 -36.16,8.83 -58.86,8.83 -26.35,0 -52.27,-4.91 -77.78,-14.72 1.12,-8.41 3.15,-16.89 6.1,-25.43 2.94,-8.55 6.52,-17.45 10.72,-26.7zm309.43 -188.34l-71.47 0c0,-8.69 0.77,-17.31 2.32,-25.86 1.54,-8.55 3.85,-17.31 6.94,-26.27l204.74 0c0,8.69 -0.77,17.24 -2.32,25.65 -1.54,8.41 -3.85,17.23 -6.94,26.49l-71.47 0 -43.72 250.15c-11.49,1.68 -22,2.52 -31.53,2.52 -10.09,0 -20.18,-0.84 -30.27,-2.52l43.72 -250.15zm189.61 -52.13l165.64 0c0,1.12 0.07,2.24 0.21,3.36 0.14,1.12 0.21,2.24 0.21,3.37 0,7.28 -0.84,14.71 -2.52,22.28 -1.68,7.57 -4.07,15.28 -7.15,23.12l-104.26 0 -11.35 65.59 82.82 0c0,16.81 -3.08,34.33 -9.25,52.55l-82.82 0 -14.3 79.88 107.21 0c0,1.12 0.07,2.17 0.21,3.15 0.14,0.98 0.21,2.03 0.21,3.15 0,7.56 -0.91,15.06 -2.73,22.49 -1.82,7.42 -3.99,15.2 -6.52,23.33l-168.59 0 52.97 -302.28zm232.91 0.42c11.49,-1.96 22.56,-2.94 33.21,-2.94 5.33,0 10.23,0.28 14.72,0.84 4.49,0.56 9.39,1.26 14.71,2.1l34.9 168.59 97.96 -168.59c4.77,-1.12 9.67,-1.89 14.72,-2.31 5.05,-0.42 10.09,-0.63 15.13,-0.63 4.77,0 9.74,0.21 14.93,0.63 5.19,0.42 10.16,1.19 14.92,2.31l-39.52 301.86c-11.49,1.68 -21.72,2.52 -30.69,2.52 -9.81,0 -19.06,-0.84 -27.75,-2.52l28.17 -198.01 -79.88 134.95c-4.21,0.56 -8.34,1.05 -12.4,1.47 -4.07,0.42 -8.06,0.63 -11.98,0.63 -3.93,0 -7.78,-0.14 -11.56,-0.42 -3.79,-0.28 -7.64,-0.84 -11.56,-1.68l-27.33 -136.64 -40.78 199.7c-9.81,1.68 -18.92,2.52 -27.33,2.52 -8.41,0 -17.23,-0.84 -26.49,-2.52l63.91 -301.86z"/>
  </g>
  <path class="fil0" d="M1374.23 35.63c60.53,-34.7 133.35,-41.28 201.39,-31.54 83.87,13.85 161.91,76.67 182.77,160.73 6.95,47.12 7.76,97.71 -13.28,141.6 -24.9,58.67 -78.35,96.35 -124.1,137.63 -31.72,29.12 -65,56.43 -97.28,84.86 -28.76,7.23 -62.3,-24.64 -57.85,-48.92 57.36,-52.15 116.71,-102.06 174.44,-153.77 30.42,-29.49 48.3,-71.89 47.68,-114.35 -0.87,-56.74 -43.64,-105.17 -93.37,-127.83 -45.88,-23.65 -101.44,-21.11 -148.93,-3.79 -39.92,12.23 -68.35,44.64 -99.14,70.83 -41.34,34.14 -81.51,69.71 -121.55,105.41 2.11,76.92 -54.88,139 -115.04,179.16 -32.71,23.34 -72.51,33.84 -112.12,36.94 -26.26,0.37 -53.39,-12.35 -64.62,-37.12 -10.96,-47.9 5.89,-76.36 28.06,-117.15 49.36,-64.19 126.15,-118.08 210.39,-112 40.53,-36.01 81.7,-71.27 122.36,-107.09 26.76,-21.17 50.53,-46.31 80.21,-63.63z"/>
  <path class="fil1" d="M992.19 119.56c8.13,-6.94 45.35,19.22 40.42,32.47 -36.38,36.63 -77.11,68.6 -114.97,103.61 -33.83,31.91 -75.24,59.84 -92.81,104.79 -26.68,60.03 -10.51,134.92 40.29,176.74 65.15,60.54 177.55,49.46 244.23,-3.47 58.23,-48.42 112.93,-100.76 170.22,-150.23 4.59,-33.59 18.25,-66.31 41.65,-91.14 47.43,-47.86 109.1,-99.89 159.88,-144.09 1.11,-2.01 12.4,-5.07 8.7,5.29 -43.62,44.88 -95.34,81.43 -138.72,126.63 8.51,6.39 15.31,14.43 23.88,20.7 41.48,-31.68 102.28,-94.49 143.15,-127.84 5.59,-5.53 19.41,-2.71 8.22,8.98 -38.8,33.77 -103.31,93.76 -143.41,126.05 8.27,6.76 18.08,15.44 26.28,22.62 46.37,-38.8 97.18,-87.08 143.61,-125.88 6.07,-5.99 18.12,-2.87 8.27,7.83 -30.8,33.43 -105.1,95.7 -142.18,126.49 8.76,7.56 16.72,14.69 25.52,22.14 35.57,-35.45 104.68,-91.71 141.99,-125.29 6.3,-8.15 16.65,1.87 8.67,7.92 -38.12,32.4 -95,82.86 -132.12,116.32 -38.12,34.52 -87.04,61.84 -139.49,62.45 -54.38,47.99 -109.39,95.42 -163.4,143.85 -67.62,60.47 -197.19,97.3 -283.21,58.17 -50.28,-22.53 -93.18,-63.01 -115.66,-113.67 -24.05,-88.05 -15.35,-166.34 65.06,-247.89 17.52,-15.67 35.06,-31.31 52.73,-46.78 30.2,-26.45 82.67,-77.4 113.2,-96.75z"/>
 </g>
</svg>
